w50b400r0.ufo
<glyph name="_11" format="2">
  <advance width="50"/>
  <unicode hex="010B"/>
  
  <outline>
    <component base="cap" xOffset="0" yOffset="0" />
    <component base="cap" xOffset="0" yOffset="110" />
    <contour>
      <point x="0" y="0" type="line"/>
      <point x="0" y="110" type="line"/>
      <point x="400" y="110" type="line"/>
      <point x="400" y="0" type="line"/>
    </contour>
  </outline>
</glyph>
<glyph name="_37" format="2">
  <advance width="50"/>
  <unicode hex="0125"/>
  
  <outline>
    <component base="cap" xOffset="0" yOffset="0" />
    <component base="cap" xOffset="0" yOffset="370" />
    <contour>
      <point x="0" y="0" type="line"/>
      <point x="0" y="370" type="line"/>
      <point x="400" y="370" type="line"/>
      <point x="400" y="0" type="line"/>
    </contour>
  </outline>
</glyph>
<glyph name="_45" format="2">
  <advance width="50"/>
  <unicode hex="012D"/>
  
  <outline>
    <component base="cap" xOffset="0" yOffset="0" />
    <component base="cap" xOffset="0" yOffset="450" />
    <contour>
      <point x="0" y="0" type="line"/>
      <point x="0" y="450" type="line"/>
      <point x="400" y="450" type="line"/>
      <point x="400" y="0" type="line"/>
    </contour>
  </outline>
</glyph>
<glyph name="_51" format="2">
  <advance width="50"/>
  <unicode hex="0133"/>
  
  <outline>
    <component base="cap" xOffset="0" yOffset="0" />
    <component base="cap" xOffset="0" yOffset="510" />
    <contour>
      <point x="0" y="0" type="line"/>
      <point x="0" y="510" type="line"/>
      <point x="400" y="510" type="line"/>
      <point x="400" y="0" type="line"/>
    </contour>
  </outline>
</glyph>
<glyph name="_63" format="2">
  <advance width="50"/>
  <unicode hex="013F"/>
  
  <outline>
    <component base="cap" xOffset="0" yOffset="0" />
    <component base="cap" xOffset="0" yOffset="630" />
    <contour>
      <point x="0" y="0" type="line"/>
      <point x="0" y="630" type="line"/>
      <point x="400" y="630" type="line"/>
      <point x="400" y="0" type="line"/>
    </contour>
  </outline>
</glyph>
<glyph name="_68" format="2">
  <advance width="50"/>
  <unicode hex="0144"/>
  <unicode hex="0049"/>
  <outline>
    <component base="cap" xOffset="0" yOffset="0" />
    <component base="cap" xOffset="0" yOffset="680" />
    <contour>
      <point x="0" y="0" type="line"/>
      <point x="0" y="680" type="line"/>
      <point x="400" y="680" type="line"/>
      <point x="400" y="0" type="line"/>
    </contour>
  </outline>
</glyph>
<glyph name="_70" format="2">
  <advance width="50"/>
  <unicode hex="0146"/>
  <unicode hex="0037"/><unicode hex="004A"/>
  <outline>
    <component base="cap" xOffset="0" yOffset="0" />
    <component base="cap" xOffset="0" yOffset="700" />
    <contour>
      <point x="0" y="0" type="line"/>
      <point x="0" y="700" type="line"/>
      <point x="400" y="700" type="line"/>
      <point x="400" y="0" type="line"/>
    </contour>
  </outline>
</glyph>
<glyph name="_84" format="2">
  <advance width="50"/>
  <unicode hex="0154"/>
  <unicode hex="0051"/>
  <outline>
    <component base="cap" xOffset="0" yOffset="0" />
    <component base="cap" xOffset="0" yOffset="840" />
    <contour>
      <point x="0" y="0" type="line"/>
      <point x="0" y="840" type="line"/>
      <point x="400" y="840" type="line"/>
      <point x="400" y="0" type="line"/>
    </contour>
  </outline>
</glyph>
<glyph name="_86" format="2">
  <advance width="50"/>
  <unicode hex="0156"/>
  <unicode hex="2587"/><unicode hex="0052"/>
  <outline>
    <component base="cap" xOffset="0" yOffset="0" />
    <component base="cap" xOffset="0" yOffset="860" />
    <contour>
      <point x="0" y="0" type="line"/>
      <point x="0" y="860" type="line"/>
      <point x="400" y="860" type="line"/>
      <point x="400" y="0" type="line"/>
    </contour>
  </outline>
</glyph>
<glyph name="_99" format="2">
  <advance width="50"/>
  <unicode hex="0163"/>
  <unicode hex="0059"/>
  <outline>
    <component base="cap" xOffset="0" yOffset="0" />
    <component base="cap" xOffset="0" yOffset="990" />
    <contour>
      <point x="0" y="0" type="line"/>
      <point x="0" y="990" type="line"/>
      <point x="400" y="990" type="line"/>
      <point x="400" y="0" type="line"/>
    </contour>
  </outline>
</glyph>
<glyph name="_105" format="2">
  <advance width="50"/>
  <unicode hex="0169"/>
  
  <outline>
    <component base="cap" xOffset="0" yOffset="0" />
    <component base="cap" xOffset="0" yOffset="1050" />
    <contour>
      <point x="0" y="0" type="line"/>
      <point x="0" y="1050" type="line"/>
      <point x="400" y="1050" type="line"/>
      <point x="400" y="0" type="line"/>
    </contour>
  </outline>
</glyph>
<glyph name="_106" format="2">
  <advance width="50"/>
  <unicode hex="016A"/>
  
  <outline>
    <component base="cap" xOffset="0" yOffset="0" />
    <component base="cap" xOffset="0" yOffset="1060" />
    <contour>
      <point x="0" y="0" type="line"/>
      <point x="0" y="1060" type="line"/>
      <point x="400" y="1060" type="line"/>
      <point x="400" y="0" type="line"/>
    </contour>
  </outline>
</glyph>
<glyph name="_3.center" format="2">
  <advance width="50"/>
  <unicode hex="0403"/>
  
  <outline>
    <component base="cap" xOffset="0" yOffset="485" />
    <component base="cap" xOffset="0" yOffset="515" />
    <contour>
      <point x="0" y="485" type="line"/>
      <point x="0" y="515" type="line"/>
      <point x="400" y="515" type="line"/>
      <point x="400" y="485" type="line"/>
    </contour>
  </outline>
</glyph>
<glyph name="_7.center" format="2">
  <advance width="50"/>
  <unicode hex="0407"/>
  
  <outline>
    <component base="cap" xOffset="0" yOffset="465" />
    <component base="cap" xOffset="0" yOffset="535" />
    <contour>
      <point x="0" y="465" type="line"/>
      <point x="0" y="535" type="line"/>
      <point x="400" y="535" type="line"/>
      <point x="400" y="465" type="line"/>
    </contour>
  </outline>
</glyph>
<glyph name="_26.center" format="2">
  <advance width="50"/>
  <unicode hex="041A"/>
  
  <outline>
    <component base="cap" xOffset="0" yOffset="370" />
    <component base="cap" xOffset="0" yOffset="630" />
    <contour>
      <point x="0" y="370" type="line"/>
      <point x="0" y="630" type="line"/>
      <point x="400" y="630" type="line"/>
      <point x="400" y="370" type="line"/>
    </contour>
  </outline>
</glyph>
<glyph name="_31.center" format="2">
  <advance width="50"/>
  <unicode hex="041F"/>
  
  <outline>
    <component base="cap" xOffset="0" yOffset="345" />
    <component base="cap" xOffset="0" yOffset="655" />
    <contour>
      <point x="0" y="345" type="line"/>
      <point x="0" y="655" type="line"/>
      <point x="400" y="655" type="line"/>
      <point x="400" y="345" type="line"/>
    </contour>
  </outline>
</glyph>
<glyph name="_34.center" format="2">
  <advance width="50"/>
  <unicode hex="0422"/>
  
  <outline>
    <component base="cap" xOffset="0" yOffset="330" />
    <component base="cap" xOffset="0" yOffset="670" />
    <contour>
      <point x="0" y="330" type="line"/>
      <point x="0" y="670" type="line"/>
      <point x="400" y="670" type="line"/>
      <point x="400" y="330" type="line"/>
    </contour>
  </outline>
</glyph>
<glyph name="_63.center" format="2">
  <advance width="50"/>
  <unicode hex="043F"/>
  
  <outline>
    <component base="cap" xOffset="0" yOffset="185" />
    <component base="cap" xOffset="0" yOffset="815" />
    <contour>
      <point x="0" y="185" type="line"/>
      <point x="0" y="815" type="line"/>
      <point x="400" y="815" type="line"/>
      <point x="400" y="185" type="line"/>
    </contour>
  </outline>
</glyph>
<glyph name="_69.center" format="2">
  <advance width="50"/>
  <unicode hex="0445"/>
  
  <outline>
    <component base="cap" xOffset="0" yOffset="155" />
    <component base="cap" xOffset="0" yOffset="845" />
    <contour>
      <point x="0" y="155" type="line"/>
      <point x="0" y="845" type="line"/>
      <point x="400" y="845" type="line"/>
      <point x="400" y="155" type="line"/>
    </contour>
  </outline>
</glyph>
<glyph name="_74.center" format="2">
  <advance width="50"/>
  <unicode hex="044A"/>
  
  <outline>
    <component base="cap" xOffset="0" yOffset="130" />
    <component base="cap" xOffset="0" yOffset="870" />
    <contour>
      <point x="0" y="130" type="line"/>
      <point x="0" y="870" type="line"/>
      <point x="400" y="870" type="line"/>
      <point x="400" y="130" type="line"/>
    </contour>
  </outline>
</glyph>
<glyph name="_75.center" format="2">
  <advance width="50"/>
  <unicode hex="044B"/>
  
  <outline>
    <component base="cap" xOffset="0" yOffset="125" />
    <component base="cap" xOffset="0" yOffset="875" />
    <contour>
      <point x="0" y="125" type="line"/>
      <point x="0" y="875" type="line"/>
      <point x="400" y="875" type="line"/>
      <point x="400" y="125" type="line"/>
    </contour>
  </outline>
</glyph>
<glyph name="_76.center" format="2">
  <advance width="50"/>
  <unicode hex="044C"/>
  
  <outline>
    <component base="cap" xOffset="0" yOffset="120" />
    <component base="cap" xOffset="0" yOffset="880" />
    <contour>
      <point x="0" y="120" type="line"/>
      <point x="0" y="880" type="line"/>
      <point x="400" y="880" type="line"/>
      <point x="400" y="120" type="line"/>
    </contour>
  </outline>
</glyph>
<glyph name="_97.center" format="2">
  <advance width="50"/>
  <unicode hex="0461"/>
  
  <outline>
    <component base="cap" xOffset="0" yOffset="15" />
    <component base="cap" xOffset="0" yOffset="985" />
    <contour>
      <point x="0" y="15" type="line"/>
      <point x="0" y="985" type="line"/>
      <point x="400" y="985" type="line"/>
      <point x="400" y="15" type="line"/>
    </contour>
  </outline>
</glyph>
<glyph name="_99.center" format="2">
  <advance width="50"/>
  <unicode hex="0463"/>
  
  <outline>
    <component base="cap" xOffset="0" yOffset="5" />
    <component base="cap" xOffset="0" yOffset="995" />
    <contour>
      <point x="0" y="5" type="line"/>
      <point x="0" y="995" type="line"/>
      <point x="400" y="995" type="line"/>
      <point x="400" y="5" type="line"/>
    </contour>
  </outline>
</glyph>
<glyph name="_102.center" format="2">
  <advance width="50"/>
  <unicode hex="0466"/>
  
  <outline>
    <component base="cap" xOffset="0" yOffset="-10" />
    <component base="cap" xOffset="0" yOffset="1010" />
    <contour>
      <point x="0" y="-10" type="line"/>
      <point x="0" y="1010" type="line"/>
      <point x="400" y="1010" type="line"/>
      <point x="400" y="-10" type="line"/>
    </contour>
  </outline>
</glyph>
